<svg xmlns="http://www.w3.org/2000/svg" style="display: none;">
<!-- search-icon -->
<symbol id="search-icon" viewBox="0 0 20 20" fill="none">
    <path d="M16.59 16.59L13.2429 13.2424M15 9C15 12.3137 12.3137 15 9 15C5.68629 15 3 12.3137 3 9C3 5.68629 5.68629 3 9 3C12.3137 3 15 5.68629 15 9Z" stroke="#8C8C8C" stroke-width="2" stroke-linecap="square"/>
</symbol>
<!-- clear-icon -->
<symbol id="clear-icon" viewBox="0 0 17 17" fill="none">
    <path fill-rule="evenodd" clip-rule="evenodd" d="M8.5 17C13.1944 17 17 13.1943 17 8.5C17 3.80566 13.1944 0 8.5 0C3.80557 0 0 3.80566 0 8.5C0 13.1943 3.80557 17 8.5 17ZM12.2657 4.73438C12.5781 5.04663 12.5781 5.55322 12.2657 5.86572L9.63138 8.5L12.2657 11.1343C12.5781 11.4468 12.5781 11.9534 12.2657 12.2656C11.9533 12.5781 11.4467 12.5781 11.1343 12.2656L8.5 9.63135L5.86569 12.2656C5.55328 12.5781 5.04675 12.5781 4.73431 12.2656C4.42191 11.9534 4.42191 11.4468 4.73431 11.1343L7.36862 8.5L4.73431 5.86572C4.42191 5.55322 4.42191 5.04663 4.73431 4.73438C5.04672 4.42188 5.55325 4.42188 5.86569 4.73438L8.5 7.36865L11.1343 4.73438C11.4467 4.42188 11.9533 4.42188 12.2657 4.73438Z" fill="currentColor"/>
</symbol>
<!-- menu-icon -->
<symbol id="menu-icon" viewBox="0 0 24 24" fill="none">
    <path d="M3 12H21" stroke="black" stroke-width="2" stroke-linecap="round" stroke-linejoin="round"/>
    <path d="M3 6H21" stroke="black" stroke-width="2" stroke-linecap="round" stroke-linejoin="round"/>
    <path d="M3 18H21" stroke="black" stroke-width="2" stroke-linecap="round" stroke-linejoin="round"/>
</symbol>
<!-- cross-icon -->
<symbol id="cross-icon" viewBox="0 0 18 18" fill="none">
    <path d="M3.33643 3.33633L14.6668 14.6667M14.6668 3.33633L3.33643 14.6667" stroke="black" stroke-width="2" stroke-linecap="round"/>
</symbol>
<!-- countries-icon -->
<symbol id="countries-icon" viewBox="0 0 24 24" fill="none">
        <path d="M12 3V2.1V3ZM20 11H20.9H20ZM12.3984 21.0908L12.8093 21.8916L12.8093 21.8916L12.3984 21.0908ZM11.6016 21.0908L11.1907 21.8916L11.1907 21.8916L11.6016 21.0908ZM4 11H3.1H4ZM12 7.57129L12 6.67129H12V7.57129ZM8.57129 11H7.67129L7.67129 11L8.57129 11ZM12 14.4287V15.3287H12L12 14.4287ZM15.4287 11L16.3287 11V11H15.4287ZM12 3V3.9C15.9212 3.9 19.1 7.07878 19.1 11H20H20.9C20.9 6.08467 16.9153 2.1 12 2.1V3ZM20 11H19.1C19.1 13.5694 17.7764 15.6689 16.1699 17.2716C14.5647 18.8728 12.7559 19.8958 11.9875 20.2901L12.3984 21.0908L12.8093 21.8916C13.6577 21.4562 15.6497 20.333 17.4411 18.5459C19.2312 16.7601 20.9 14.2291 20.9 11H20ZM12.3984 21.0908L11.9876 20.2901C11.9864 20.2907 11.9871 20.2901 11.9898 20.2895C11.9925 20.2889 11.996 20.2884 12 20.2884C12.004 20.2884 12.0075 20.2889 12.0102 20.2895C12.0129 20.2901 12.0136 20.2907 12.0124 20.2901L11.6016 21.0908L11.1907 21.8916C11.702 22.154 12.298 22.154 12.8093 21.8916L12.3984 21.0908ZM11.6016 21.0908L12.0125 20.2901C11.2441 19.8958 9.43528 18.8728 7.83013 17.2716C6.2236 15.6689 4.9 13.5694 4.9 11H4H3.1C3.1 14.2291 4.7688 16.7601 6.55887 18.5459C8.35032 20.333 10.3423 21.4562 11.1907 21.8916L11.6016 21.0908ZM4 11H4.9C4.9 7.07878 8.07878 3.9 12 3.9V3V2.1C7.08467 2.1 3.1 6.08467 3.1 11H4ZM12 7.57129V6.67129C9.6094 6.67129 7.67129 8.6094 7.67129 11H8.57129H9.47129C9.47129 9.60351 10.6035 8.47129 12 8.47129V7.57129ZM8.57129 11L7.67129 11C7.6713 13.3906 9.6094 15.3287 12 15.3287V14.4287V13.5287C10.6035 13.5287 9.47129 12.3965 9.47129 11L8.57129 11ZM12 14.4287L12 15.3287C14.3906 15.3287 16.3287 13.3906 16.3287 11L15.4287 11L14.5287 11C14.5287 12.3965 13.3965 13.5287 12 13.5287L12 14.4287ZM15.4287 11H16.3287C16.3287 8.6094 14.3906 6.6713 12 6.67129L12 7.57129L12 8.47129C13.3965 8.47129 14.5287 9.60351 14.5287 11H15.4287Z" fill="#F7486D"/>
</symbol>
<!-- world-icon -->
<symbol id="world-icon" viewBox="0 0 24 24" fill="none">
    <circle cx="12" cy="12" r="9" stroke="#FFA100" stroke-width="1.8"/>
    <ellipse cx="12" cy="12" rx="3.375" ry="9" stroke="#FFA100" stroke-width="1.8"/>
    <path d="M3 12H21" stroke="#FFA100" stroke-width="1.8" stroke-linecap="round"/>
</symbol>
<!-- continent-icon -->
<symbol id="continent-icon" viewBox="0 0 24 24" fill="none">
    <path d="M13.8184 10.9501C13.8717 11.0424 13.9568 11.298 14.0276 11.7675C14.0938 12.2065 14.1349 12.7395 14.1573 13.3085C14.1904 14.1507 14.1805 15.0339 14.1607 15.7422C13.5374 15.4052 12.7676 14.9721 12.0548 14.5224C11.5732 14.2185 11.1322 13.9164 10.7851 13.6395C10.4139 13.3435 10.2351 13.1421 10.1818 13.0497C10.1284 12.9573 10.0433 12.7017 9.97256 12.2323C9.90638 11.7932 9.86523 11.2602 9.84287 10.6912C9.80977 9.84873 9.8191 8.96511 9.83894 8.25667C10.4624 8.59371 11.2323 9.02744 11.9454 9.47736C12.4269 9.78122 12.8679 10.0833 13.2151 10.3602C13.5862 10.6562 13.765 10.8577 13.8184 10.9501Z" stroke="#007AFF" stroke-width="1.8"/>
    <circle cx="12" cy="12" r="9" stroke="#007AFF" stroke-width="1.8"/>
</symbol>
<!-- arrow-icon -->
<symbol id="arrow-icon" viewBox="0 0 18 18" fill="none">
    <path d="M5.24976 13.5939L9.84369 9L5.24976 4.40607L6.65601 2.99982L12.6562 9L6.65601 15.0002L5.24976 13.5939Z" fill="black"/>
</symbol>
</svg>